<svg width="128" height="128" viewBox="18 18 92 92" fill="none" xmlns="http://www.w3.org/2000/svg">
  <g stroke="#062851" stroke-linecap="round" stroke-linejoin="round">
    <path d="M28 64h11M89 64h11M64 28v11M64 89v11" stroke-width="5"/>
    <path d="M33 48V36h15M95 48V36H80M33 80v12h15M95 80v12H80" stroke-width="4"/>
    <path d="M41 36l8 8M87 36l-8 8M41 92l8-8M87 92l-8-8" stroke-width="4"/>
    <path d="M46 60c0-16 9-26 22-26 9 0 16 4 20 12 3 6 4 13 3 20-2 21-13 32-28 32-12 0-22-8-26-21" stroke-width="6"/>
    <path d="M46 64c13-18 27-25 42-23" stroke-width="6"/>
    <path d="M64 35v58" stroke-width="4"/>
    <path d="M75 52h14M79 63h10M77 74h9" stroke-width="4"/>
    <path d="M53 82c5 6 15 6 20 0" stroke-width="5"/>
  </g>
  <g fill="#062851">
    <circle cx="52" cy="63" r="4"/>
    <circle cx="77" cy="63" r="4"/>
    <circle cx="28" cy="64" r="4"/>
    <circle cx="100" cy="64" r="4"/>
    <circle cx="64" cy="28" r="4"/>
    <circle cx="64" cy="100" r="4"/>
  </g>
  <circle cx="27" cy="49" r="3.5" fill="#22d3ee"/>
  <circle cx="101" cy="79" r="3.5" fill="#22d3ee"/>
</svg>
